<svg width="416" height="305" viewBox="0 0 416 305" fill="none" xmlns="http://www.w3.org/2000/svg">
<path d="M250.277 92.658L267.656 78.3361L323.978 27.3676" stroke="black" stroke-width="2.4113" stroke-linecap="round"/>
<path d="M311.989 13.7903L253.307 62.0951C252.956 62.3844 252.915 62.9078 253.216 63.2486L264.936 76.4779C265.225 76.8041 265.721 76.8406 266.055 76.5602L324.215 27.6663C324.561 27.3754 324.599 26.8564 324.299 26.5181L313.102 13.8779C312.815 13.5541 312.323 13.5154 311.989 13.7903Z" fill="#17DAFB" stroke="black" stroke-width="2.4113" stroke-linecap="round"/>
<path d="M237.958 78.2513L252.662 62.7287C252.986 62.3863 253.534 62.3954 253.847 62.7485L265.56 75.9703C265.84 76.2862 265.828 76.7648 265.532 77.0661L250.58 92.309C250.254 92.6417 249.714 92.6279 249.404 92.2791L237.939 79.337C237.663 79.0251 237.671 78.5538 237.958 78.2513Z" fill="#0F7A8C" stroke="black" stroke-width="2.4113" stroke-linecap="round"/>
<path d="M412.774 171.629L304.706 47.5972C303.987 46.7721 302.738 46.678 301.904 47.3858L296.814 51.7033C295.963 52.4255 295.868 53.7049 296.603 54.5452L405.484 179.021C406.273 179.924 407.675 179.933 408.477 179.041L412.754 174.28C413.429 173.528 413.438 172.391 412.774 171.629Z" fill="#8F8F8F" stroke="black" stroke-width="2.4113"/>
<path d="M403.329 181.446L406.708 180.038C407.341 179.774 407.527 178.966 407.072 178.452L297.222 54.3806C296.532 53.6006 295.358 53.4813 294.525 54.1063L293.723 54.7075C292.793 55.4053 292.652 56.7467 293.417 57.6228L401.053 180.915C401.619 181.563 402.535 181.777 403.329 181.446Z" fill="#414141" stroke="black" stroke-width="3"/>
<path d="M231.201 41.34C231.498 39.9794 233.327 39.7218 233.987 40.9476L236.156 44.9716C236.502 45.6139 237.112 46.0729 237.825 46.2282L242.291 47.2012C243.652 47.4976 243.91 49.3266 242.684 49.9873L238.66 52.1561C238.017 52.5023 237.558 53.1118 237.403 53.8247L236.43 58.2913C236.134 59.6519 234.305 59.9095 233.644 58.6837L231.475 54.6596C231.129 54.0174 230.52 53.5583 229.807 53.403L225.34 52.4301C223.979 52.1337 223.722 50.3047 224.948 49.644L228.972 47.4752C229.614 47.129 230.073 46.5195 230.228 45.8066L231.201 41.34Z" stroke="black"/>
<path d="M224.569 67.618C223.741 66.4988 224.752 64.953 226.109 65.2634L226.807 65.423C227.519 65.5857 228.266 65.4295 228.852 64.9954L229.428 64.5692C230.547 63.7408 232.093 64.7518 231.782 66.1092L231.623 66.8075C231.46 67.5188 231.616 68.2656 232.05 68.8521L232.477 69.4278C233.305 70.547 232.294 72.0929 230.937 71.7825L230.238 71.6228C229.527 71.4602 228.78 71.6164 228.194 72.0505L227.618 72.4766C226.499 73.305 224.953 72.294 225.263 70.9366L225.423 70.2384C225.586 69.5271 225.429 68.7802 224.995 68.1938L224.569 67.618Z" stroke="black"/>
<path d="M303.281 103.058C304.786 104.232 304.018 106.645 302.111 106.733L295.85 107.023C294.851 107.07 293.922 107.55 293.306 108.339L289.451 113.28C288.277 114.786 285.864 114.018 285.776 112.111L285.486 105.85C285.439 104.851 284.959 103.922 284.17 103.306L279.229 99.4512C277.723 98.2769 278.491 95.8638 280.398 95.7754L286.659 95.4854C287.658 95.4391 288.587 94.9586 289.203 94.1699L293.058 89.2284C294.232 87.7232 296.645 88.4912 296.734 90.3982L297.024 96.6588C297.07 97.6581 297.55 98.5873 298.339 99.2026L303.281 103.058Z" fill="#F7CFA5" stroke="black" stroke-width="1.371"/>
<path d="M59.0286 142.972L26.0286 142.029C25.4653 142.013 25 142.466 25 143.029V175C25 175.552 25.4477 176 26 176H59C59.5523 176 60 175.552 60 175V143.972C60 143.431 59.5695 142.988 59.0286 142.972Z" fill="#98C5FA" stroke="black" stroke-width="3" stroke-linecap="round"/>
<path d="M3.4635 142.479L25 142H25.5C26.0523 142 26.5 142.448 26.5 143V175.02C26.5 175.565 26.0646 176.009 25.5204 176.02L3.03553 176.479C2.4696 176.49 2.00691 176.03 2.01523 175.464L2.48583 143.464C2.49374 142.926 2.92572 142.491 3.4635 142.479Z" fill="#4D6A8B" stroke="black" stroke-width="3" stroke-linecap="round"/>
<path d="M2.5 176.5L27 178L59.5 176" stroke="black" stroke-width="3" stroke-linecap="round"/>
<path d="M253.5 302L281.5 303L376 302" stroke="black" stroke-width="3" stroke-linecap="round"/>
<path d="M376.036 279.465L281.536 276.038C280.97 276.017 280.5 276.47 280.5 277.037V299.026C280.5 299.568 280.932 300.011 281.474 300.025L375.974 302.473C376.536 302.488 377 302.036 377 301.474V280.464C377 279.926 376.574 279.485 376.036 279.465Z" fill="#CAF3FA" stroke="black" stroke-width="3" stroke-linecap="round"/>
<path d="M253.913 278.42L280.413 276.095C280.997 276.044 281.5 276.505 281.5 277.092V299.068C281.5 299.593 281.094 300.029 280.57 300.065L254.07 301.925C253.492 301.966 253 301.507 253 300.927V279.416C253 278.898 253.396 278.465 253.913 278.42Z" fill="#52A5B4" stroke="black" stroke-width="3" stroke-linecap="round"/>
<circle cx="369" cy="47" r="26" fill="white"/>
<path d="M388.737 37.1429L388.743 37.1369L388.749 37.1308C390.207 35.623 390.224 33.2333 388.737 31.747C387.258 30.2672 384.821 30.2672 383.342 31.747L364.741 50.3472L356.809 42.4148C355.329 40.935 352.893 40.935 351.413 42.4148C349.933 43.8947 349.933 46.3309 351.413 47.8107L362.043 58.441C362.755 59.1522 363.722 59.5602 364.741 59.5602C365.761 59.5602 366.728 59.1522 367.439 58.441L388.737 37.1429ZM333.513 45.0752C333.513 24.9304 349.931 8.51245 370.075 8.51245C390.22 8.51245 406.638 24.9304 406.638 45.0752C406.638 65.22 390.22 81.638 370.075 81.638C349.931 81.638 333.513 65.22 333.513 45.0752Z" fill="#6ED69B" stroke="black" stroke-width="2"/>
</svg>
