<svg width="606" height="482" viewBox="0 0 606 482" fill="none" xmlns="http://www.w3.org/2000/svg">
<path d="M444.747 28.2671L536.077 137.032L396.219 161.744L444.747 28.2671Z" fill="#F7CFA5"/>
<path d="M140.826 54.4561C93.9372 80.3385 56.898 123.87 40.5323 178.955C39.9282 180.988 37.8137 182.19 35.77 181.622L16.8317 176.362C14.7879 175.795 13.5894 173.673 14.1893 171.638C32.1277 110.804 72.381 62.4067 123.548 32.8674C125.09 31.9774 127.039 32.2909 128.244 33.6015L141.849 48.3995C143.559 50.2594 143.038 53.2351 140.826 54.4561Z" stroke="black" stroke-width="3"/>
<path d="M428.68 415.323C459.517 387.915 480.125 349.079 483.576 304.997C483.742 302.882 485.549 301.258 487.667 301.375L501.341 302.131C503.459 302.249 505.085 304.063 504.925 306.178C501.226 355.07 478.838 398.277 445.16 429.198C443.849 430.402 441.877 430.512 440.42 429.49L428.987 421.47C426.919 420.019 426.792 417.001 428.68 415.323Z" stroke="black" stroke-width="3"/>
<rect x="273.118" y="2.31975" width="12.7518" height="45.3554" rx="2.3406" transform="rotate(34.1015 273.118 2.31975)" stroke="black" stroke-width="3"/>
<rect x="49.0791" y="283.35" width="15.7518" height="48.3554" rx="3.8406" transform="rotate(88.8278 49.0791 283.35)" fill="black"/>
<path d="M503.366 213.972L558.559 158.618L578.9 234.093L503.366 213.972Z" stroke="black" stroke-width="3"/>
<rect x="505.017" y="413.926" width="48.0437" height="48.0437" transform="rotate(38.3806 505.017 413.926)" fill="#E3D7FC"/>
<circle cx="21" cy="21" r="21" transform="matrix(1 0 0 -1 46 388)" fill="#C8DAF3"/>
</svg>
