<svg width="28" height="28" viewBox="0 0 28 28" fill="none" xmlns="http://www.w3.org/2000/svg">
<path fill-rule="evenodd" clip-rule="evenodd" d="M4.20001 7.00001C4.20001 6.22681 4.82681 5.60001 5.60001 5.60001H22.4C23.1732 5.60001 23.8 6.22681 23.8 7.00001C23.8 7.7732 23.1732 8.40001 22.4 8.40001H5.60001C4.82681 8.40001 4.20001 7.7732 4.20001 7.00001Z" fill="#171717"/>
<path fill-rule="evenodd" clip-rule="evenodd" d="M4.20001 14C4.20001 13.2268 4.82681 12.6 5.60001 12.6H22.4C23.1732 12.6 23.8 13.2268 23.8 14C23.8 14.7732 23.1732 15.4 22.4 15.4H5.60001C4.82681 15.4 4.20001 14.7732 4.20001 14Z" fill="#171717"/>
<path fill-rule="evenodd" clip-rule="evenodd" d="M4.20001 21C4.20001 20.2268 4.82681 19.6 5.60001 19.6H22.4C23.1732 19.6 23.8 20.2268 23.8 21C23.8 21.7732 23.1732 22.4 22.4 22.4H5.60001C4.82681 22.4 4.20001 21.7732 4.20001 21Z" fill="#171717"/>
</svg>
