<svg width="20" height="20" viewBox="0 0 20 20" fill="none" xmlns="http://www.w3.org/2000/svg">
<path d="M9.99992 15.4166C12.9915 15.4166 15.4166 12.9915 15.4166 9.99998C15.4166 7.00844 12.9915 4.58331 9.99992 4.58331C7.00838 4.58331 4.58325 7.00844 4.58325 9.99998C4.58325 12.9915 7.00838 15.4166 9.99992 15.4166Z" stroke="#292D32" stroke-width="1.25" stroke-linecap="round" stroke-linejoin="round"/>
<path d="M15.9501 15.95L15.8417 15.8417M15.8417 4.15835L15.9501 4.05002L15.8417 4.15835ZM4.05008 15.95L4.15841 15.8417L4.05008 15.95ZM10.0001 1.73335V1.66669V1.73335ZM10.0001 18.3334V18.2667V18.3334ZM1.73341 10H1.66675H1.73341ZM18.3334 10H18.2667H18.3334ZM4.15841 4.15835L4.05008 4.05002L4.15841 4.15835Z" stroke="#292D32" stroke-width="1.66667" stroke-linecap="round" stroke-linejoin="round"/>
</svg>
